<mxfile host="app.diagrams.net" agent="Mozilla/5.0 (Windows NT 10.0; Win64; x64) AppleWebKit/537.36 (KHTML, like Gecko) Chrome/127.0.0.0 Safari/537.36" version="24.7.6">
  <diagram name="Page-1" id="VsWXJjeZOUv8Q2ApD7lD">
    <mxGraphModel dx="1590" dy="987" grid="1" gridSize="10" guides="1" tooltips="1" connect="1" arrows="1" fold="1" page="1" pageScale="1" pageWidth="850" pageHeight="1100" math="0" shadow="0">
      <root>
        <mxCell id="0" />
        <mxCell id="1" parent="0" />
        <mxCell id="45hF1sJUaHDSDPKUPRfM-12" value="nama_tengah" style="ellipse;whiteSpace=wrap;html=1;align=center;" vertex="1" parent="1">
          <mxGeometry x="190" y="30" width="100" height="40" as="geometry" />
        </mxCell>
        <mxCell id="45hF1sJUaHDSDPKUPRfM-13" value="nama_depan" style="ellipse;whiteSpace=wrap;html=1;align=center;" vertex="1" parent="1">
          <mxGeometry x="60" y="80" width="100" height="40" as="geometry" />
        </mxCell>
        <mxCell id="45hF1sJUaHDSDPKUPRfM-14" value="nama_belakang" style="ellipse;whiteSpace=wrap;html=1;align=center;" vertex="1" parent="1">
          <mxGeometry x="320" y="80" width="100" height="40" as="geometry" />
        </mxCell>
        <mxCell id="45hF1sJUaHDSDPKUPRfM-15" value="nama" style="ellipse;whiteSpace=wrap;html=1;align=center;" vertex="1" parent="1">
          <mxGeometry x="205" y="120" width="70" height="40" as="geometry" />
        </mxCell>
        <mxCell id="45hF1sJUaHDSDPKUPRfM-16" value="Mahasiswa" style="whiteSpace=wrap;html=1;align=center;" vertex="1" parent="1">
          <mxGeometry x="172.5" y="200" width="135" height="80" as="geometry" />
        </mxCell>
        <mxCell id="45hF1sJUaHDSDPKUPRfM-17" value="nim" style="ellipse;whiteSpace=wrap;html=1;align=center;fontStyle=4;" vertex="1" parent="1">
          <mxGeometry x="70" y="140" width="80" height="40" as="geometry" />
        </mxCell>
        <mxCell id="45hF1sJUaHDSDPKUPRfM-18" value="jurusan" style="ellipse;whiteSpace=wrap;html=1;align=center;" vertex="1" parent="1">
          <mxGeometry x="60" y="210" width="90" height="40" as="geometry" />
        </mxCell>
        <mxCell id="45hF1sJUaHDSDPKUPRfM-19" value="" style="endArrow=none;html=1;rounded=0;entryX=0.5;entryY=1;entryDx=0;entryDy=0;exitX=0.5;exitY=0;exitDx=0;exitDy=0;" edge="1" parent="1" source="45hF1sJUaHDSDPKUPRfM-15" target="45hF1sJUaHDSDPKUPRfM-12">
          <mxGeometry relative="1" as="geometry">
            <mxPoint x="240" y="120" as="sourcePoint" />
            <mxPoint x="246.5" y="71.04000000000002" as="targetPoint" />
          </mxGeometry>
        </mxCell>
        <mxCell id="45hF1sJUaHDSDPKUPRfM-20" value="" style="endArrow=none;html=1;rounded=0;exitX=1;exitY=0.5;exitDx=0;exitDy=0;" edge="1" parent="1" source="45hF1sJUaHDSDPKUPRfM-13">
          <mxGeometry relative="1" as="geometry">
            <mxPoint x="140" y="99.58" as="sourcePoint" />
            <mxPoint x="240" y="120" as="targetPoint" />
          </mxGeometry>
        </mxCell>
        <mxCell id="45hF1sJUaHDSDPKUPRfM-21" value="" style="endArrow=none;html=1;rounded=0;entryX=0;entryY=0.5;entryDx=0;entryDy=0;" edge="1" parent="1" target="45hF1sJUaHDSDPKUPRfM-14">
          <mxGeometry relative="1" as="geometry">
            <mxPoint x="240" y="120" as="sourcePoint" />
            <mxPoint x="320" y="130" as="targetPoint" />
          </mxGeometry>
        </mxCell>
        <mxCell id="45hF1sJUaHDSDPKUPRfM-22" value="alamat" style="ellipse;whiteSpace=wrap;html=1;align=center;" vertex="1" parent="1">
          <mxGeometry x="70" y="280" width="90" height="40" as="geometry" />
        </mxCell>
        <mxCell id="45hF1sJUaHDSDPKUPRfM-26" value="" style="endArrow=none;html=1;rounded=0;exitX=0.771;exitY=0.902;exitDx=0;exitDy=0;exitPerimeter=0;entryX=-0.001;entryY=0.368;entryDx=0;entryDy=0;entryPerimeter=0;" edge="1" parent="1" source="45hF1sJUaHDSDPKUPRfM-17" target="45hF1sJUaHDSDPKUPRfM-16">
          <mxGeometry relative="1" as="geometry">
            <mxPoint x="112.5" y="220" as="sourcePoint" />
            <mxPoint x="172.5" y="220" as="targetPoint" />
          </mxGeometry>
        </mxCell>
        <mxCell id="45hF1sJUaHDSDPKUPRfM-29" value="" style="endArrow=none;html=1;rounded=0;exitX=1;exitY=0.5;exitDx=0;exitDy=0;" edge="1" parent="1" source="45hF1sJUaHDSDPKUPRfM-18">
          <mxGeometry relative="1" as="geometry">
            <mxPoint x="152.5" y="229.86" as="sourcePoint" />
            <mxPoint x="172.5" y="229.86" as="targetPoint" />
          </mxGeometry>
        </mxCell>
        <mxCell id="45hF1sJUaHDSDPKUPRfM-30" value="" style="endArrow=none;html=1;rounded=0;exitX=0.724;exitY=0.035;exitDx=0;exitDy=0;exitPerimeter=0;" edge="1" parent="1" source="45hF1sJUaHDSDPKUPRfM-22">
          <mxGeometry relative="1" as="geometry">
            <mxPoint x="102.5" y="239.8" as="sourcePoint" />
            <mxPoint x="173" y="230" as="targetPoint" />
          </mxGeometry>
        </mxCell>
        <mxCell id="45hF1sJUaHDSDPKUPRfM-31" value="" style="endArrow=none;html=1;rounded=0;exitX=0.5;exitY=0;exitDx=0;exitDy=0;" edge="1" parent="1" source="45hF1sJUaHDSDPKUPRfM-16">
          <mxGeometry relative="1" as="geometry">
            <mxPoint x="160" y="160" as="sourcePoint" />
            <mxPoint x="240" y="160" as="targetPoint" />
          </mxGeometry>
        </mxCell>
        <mxCell id="45hF1sJUaHDSDPKUPRfM-32" value="alamat" style="ellipse;whiteSpace=wrap;html=1;align=center;" vertex="1" parent="1">
          <mxGeometry x="430" y="150" width="90" height="40" as="geometry" />
        </mxCell>
        <mxCell id="45hF1sJUaHDSDPKUPRfM-33" value="Mendaftar" style="shape=rhombus;perimeter=rhombusPerimeter;whiteSpace=wrap;html=1;align=center;" vertex="1" parent="1">
          <mxGeometry x="520" y="210" width="120" height="60" as="geometry" />
        </mxCell>
        <mxCell id="45hF1sJUaHDSDPKUPRfM-34" value="" style="endArrow=none;html=1;rounded=0;entryX=0;entryY=0.5;entryDx=0;entryDy=0;" edge="1" parent="1" target="45hF1sJUaHDSDPKUPRfM-33">
          <mxGeometry relative="1" as="geometry">
            <mxPoint x="307.5" y="239.5" as="sourcePoint" />
            <mxPoint x="467.5" y="239.5" as="targetPoint" />
          </mxGeometry>
        </mxCell>
        <mxCell id="45hF1sJUaHDSDPKUPRfM-35" value="jurusan" style="ellipse;whiteSpace=wrap;html=1;align=center;" vertex="1" parent="1">
          <mxGeometry x="450" y="90" width="90" height="40" as="geometry" />
        </mxCell>
        <mxCell id="45hF1sJUaHDSDPKUPRfM-36" value="nim" style="ellipse;whiteSpace=wrap;html=1;align=center;fontStyle=4;" vertex="1" parent="1">
          <mxGeometry x="570" y="80" width="80" height="40" as="geometry" />
        </mxCell>
        <mxCell id="45hF1sJUaHDSDPKUPRfM-37" value="nama" style="ellipse;whiteSpace=wrap;html=1;align=center;" vertex="1" parent="1">
          <mxGeometry x="620" y="130" width="70" height="40" as="geometry" />
        </mxCell>
        <mxCell id="45hF1sJUaHDSDPKUPRfM-38" value="" style="endArrow=none;html=1;rounded=0;exitX=0.989;exitY=0.7;exitDx=0;exitDy=0;exitPerimeter=0;" edge="1" parent="1" source="45hF1sJUaHDSDPKUPRfM-32">
          <mxGeometry relative="1" as="geometry">
            <mxPoint x="480" y="210" as="sourcePoint" />
            <mxPoint x="580" y="210" as="targetPoint" />
          </mxGeometry>
        </mxCell>
        <mxCell id="45hF1sJUaHDSDPKUPRfM-39" value="" style="endArrow=none;html=1;rounded=0;exitX=1;exitY=1;exitDx=0;exitDy=0;" edge="1" parent="1" source="45hF1sJUaHDSDPKUPRfM-35">
          <mxGeometry relative="1" as="geometry">
            <mxPoint x="480" y="210" as="sourcePoint" />
            <mxPoint x="580" y="210" as="targetPoint" />
          </mxGeometry>
        </mxCell>
        <mxCell id="45hF1sJUaHDSDPKUPRfM-40" value="" style="endArrow=none;html=1;rounded=0;entryX=0.313;entryY=1;entryDx=0;entryDy=0;entryPerimeter=0;" edge="1" parent="1" target="45hF1sJUaHDSDPKUPRfM-36">
          <mxGeometry relative="1" as="geometry">
            <mxPoint x="580" y="209" as="sourcePoint" />
            <mxPoint x="690" y="209" as="targetPoint" />
          </mxGeometry>
        </mxCell>
        <mxCell id="45hF1sJUaHDSDPKUPRfM-41" value="" style="endArrow=none;html=1;rounded=0;entryX=0;entryY=1;entryDx=0;entryDy=0;" edge="1" parent="1" target="45hF1sJUaHDSDPKUPRfM-37">
          <mxGeometry relative="1" as="geometry">
            <mxPoint x="580" y="210" as="sourcePoint" />
            <mxPoint x="690" y="210" as="targetPoint" />
          </mxGeometry>
        </mxCell>
        <mxCell id="45hF1sJUaHDSDPKUPRfM-42" value="" style="endArrow=none;html=1;rounded=0;" edge="1" parent="1">
          <mxGeometry relative="1" as="geometry">
            <mxPoint x="640" y="239.41" as="sourcePoint" />
            <mxPoint x="840" y="240" as="targetPoint" />
          </mxGeometry>
        </mxCell>
        <mxCell id="45hF1sJUaHDSDPKUPRfM-43" value="Anggota&amp;nbsp;&lt;div&gt;Perpustakaan&lt;/div&gt;" style="whiteSpace=wrap;html=1;align=center;" vertex="1" parent="1">
          <mxGeometry x="840" y="200" width="135" height="80" as="geometry" />
        </mxCell>
        <mxCell id="45hF1sJUaHDSDPKUPRfM-44" value="nomor_anggota" style="ellipse;whiteSpace=wrap;html=1;align=center;" vertex="1" parent="1">
          <mxGeometry x="730" y="130" width="100" height="40" as="geometry" />
        </mxCell>
        <mxCell id="45hF1sJUaHDSDPKUPRfM-45" value="nama" style="ellipse;whiteSpace=wrap;html=1;align=center;" vertex="1" parent="1">
          <mxGeometry x="750" y="70" width="80" height="40" as="geometry" />
        </mxCell>
        <mxCell id="45hF1sJUaHDSDPKUPRfM-46" value="jurusan" style="ellipse;whiteSpace=wrap;html=1;align=center;" vertex="1" parent="1">
          <mxGeometry x="910" y="70" width="90" height="40" as="geometry" />
        </mxCell>
        <mxCell id="45hF1sJUaHDSDPKUPRfM-47" value="masa_berlaku" style="ellipse;whiteSpace=wrap;html=1;align=center;" vertex="1" parent="1">
          <mxGeometry x="940" y="120" width="100" height="40" as="geometry" />
        </mxCell>
        <mxCell id="45hF1sJUaHDSDPKUPRfM-49" value="" style="endArrow=none;html=1;rounded=0;entryX=0.399;entryY=1.064;entryDx=0;entryDy=0;entryPerimeter=0;" edge="1" parent="1" target="45hF1sJUaHDSDPKUPRfM-47">
          <mxGeometry relative="1" as="geometry">
            <mxPoint x="910" y="200.29" as="sourcePoint" />
            <mxPoint x="1030" y="200" as="targetPoint" />
          </mxGeometry>
        </mxCell>
        <mxCell id="45hF1sJUaHDSDPKUPRfM-51" value="" style="endArrow=none;html=1;rounded=0;exitX=1;exitY=1;exitDx=0;exitDy=0;" edge="1" parent="1" source="45hF1sJUaHDSDPKUPRfM-44">
          <mxGeometry relative="1" as="geometry">
            <mxPoint x="750" y="198.57" as="sourcePoint" />
            <mxPoint x="910" y="198.57" as="targetPoint" />
          </mxGeometry>
        </mxCell>
        <mxCell id="45hF1sJUaHDSDPKUPRfM-52" value="" style="endArrow=none;html=1;rounded=0;exitX=0;exitY=1;exitDx=0;exitDy=0;" edge="1" parent="1" source="45hF1sJUaHDSDPKUPRfM-46">
          <mxGeometry relative="1" as="geometry">
            <mxPoint x="750" y="198.57" as="sourcePoint" />
            <mxPoint x="910" y="198.57" as="targetPoint" />
          </mxGeometry>
        </mxCell>
        <mxCell id="45hF1sJUaHDSDPKUPRfM-53" value="" style="endArrow=none;html=1;rounded=0;exitX=0.998;exitY=0.814;exitDx=0;exitDy=0;exitPerimeter=0;" edge="1" parent="1" source="45hF1sJUaHDSDPKUPRfM-45">
          <mxGeometry relative="1" as="geometry">
            <mxPoint x="750" y="198.57" as="sourcePoint" />
            <mxPoint x="910" y="198.57" as="targetPoint" />
          </mxGeometry>
        </mxCell>
        <mxCell id="45hF1sJUaHDSDPKUPRfM-54" value="" style="endArrow=none;html=1;rounded=0;entryX=0.5;entryY=1;entryDx=0;entryDy=0;exitX=0.5;exitY=0;exitDx=0;exitDy=0;exitPerimeter=0;" edge="1" parent="1" source="45hF1sJUaHDSDPKUPRfM-55" target="45hF1sJUaHDSDPKUPRfM-43">
          <mxGeometry relative="1" as="geometry">
            <mxPoint x="910" y="400" as="sourcePoint" />
            <mxPoint x="920" y="278.57" as="targetPoint" />
          </mxGeometry>
        </mxCell>
        <mxCell id="45hF1sJUaHDSDPKUPRfM-56" value="1" style="edgeLabel;html=1;align=center;verticalAlign=middle;resizable=0;points=[];" vertex="1" connectable="0" parent="45hF1sJUaHDSDPKUPRfM-54">
          <mxGeometry x="0.6333" y="1" relative="1" as="geometry">
            <mxPoint as="offset" />
          </mxGeometry>
        </mxCell>
        <mxCell id="45hF1sJUaHDSDPKUPRfM-55" value="Meminjam" style="shape=rhombus;perimeter=rhombusPerimeter;whiteSpace=wrap;html=1;align=center;" vertex="1" parent="1">
          <mxGeometry x="847.5" y="400" width="120" height="60" as="geometry" />
        </mxCell>
        <mxCell id="45hF1sJUaHDSDPKUPRfM-57" value="" style="endArrow=none;html=1;rounded=0;" edge="1" parent="1">
          <mxGeometry relative="1" as="geometry">
            <mxPoint x="907.08" y="560" as="sourcePoint" />
            <mxPoint x="907.08" y="460" as="targetPoint" />
          </mxGeometry>
        </mxCell>
        <mxCell id="45hF1sJUaHDSDPKUPRfM-85" value="Many" style="edgeLabel;html=1;align=center;verticalAlign=middle;resizable=0;points=[];" vertex="1" connectable="0" parent="45hF1sJUaHDSDPKUPRfM-57">
          <mxGeometry x="0.4965" relative="1" as="geometry">
            <mxPoint as="offset" />
          </mxGeometry>
        </mxCell>
        <mxCell id="45hF1sJUaHDSDPKUPRfM-58" value="kode_peminjaman" style="ellipse;whiteSpace=wrap;html=1;align=center;" vertex="1" parent="1">
          <mxGeometry x="760" y="310" width="110" height="40" as="geometry" />
        </mxCell>
        <mxCell id="45hF1sJUaHDSDPKUPRfM-59" value="tanggal_kembali" style="ellipse;whiteSpace=wrap;html=1;align=center;" vertex="1" parent="1">
          <mxGeometry x="725" y="370" width="110" height="40" as="geometry" />
        </mxCell>
        <mxCell id="45hF1sJUaHDSDPKUPRfM-60" value="tanggal_pinjam" style="ellipse;whiteSpace=wrap;html=1;align=center;" vertex="1" parent="1">
          <mxGeometry x="725" y="430" width="110" height="40" as="geometry" />
        </mxCell>
        <mxCell id="45hF1sJUaHDSDPKUPRfM-61" value="" style="endArrow=none;html=1;rounded=0;exitX=0.788;exitY=0.925;exitDx=0;exitDy=0;exitPerimeter=0;" edge="1" parent="1" source="45hF1sJUaHDSDPKUPRfM-58">
          <mxGeometry relative="1" as="geometry">
            <mxPoint x="738" y="435" as="sourcePoint" />
            <mxPoint x="847" y="430" as="targetPoint" />
          </mxGeometry>
        </mxCell>
        <mxCell id="45hF1sJUaHDSDPKUPRfM-62" value="" style="endArrow=none;html=1;rounded=0;exitX=1;exitY=1;exitDx=0;exitDy=0;" edge="1" parent="1" source="45hF1sJUaHDSDPKUPRfM-59">
          <mxGeometry relative="1" as="geometry">
            <mxPoint x="767.5" y="429.52" as="sourcePoint" />
            <mxPoint x="847.5" y="429.52" as="targetPoint" />
          </mxGeometry>
        </mxCell>
        <mxCell id="45hF1sJUaHDSDPKUPRfM-66" value="" style="endArrow=none;html=1;rounded=0;exitX=0.96;exitY=0.298;exitDx=0;exitDy=0;exitPerimeter=0;" edge="1" parent="1" source="45hF1sJUaHDSDPKUPRfM-60">
          <mxGeometry relative="1" as="geometry">
            <mxPoint x="817.5" y="429.77" as="sourcePoint" />
            <mxPoint x="847.5" y="429.77" as="targetPoint" />
          </mxGeometry>
        </mxCell>
        <mxCell id="45hF1sJUaHDSDPKUPRfM-67" value="nomor_anggota" style="ellipse;whiteSpace=wrap;html=1;align=center;" vertex="1" parent="1">
          <mxGeometry x="940" y="320" width="110" height="40" as="geometry" />
        </mxCell>
        <mxCell id="45hF1sJUaHDSDPKUPRfM-68" value="nomor_buku" style="ellipse;whiteSpace=wrap;html=1;align=center;" vertex="1" parent="1">
          <mxGeometry x="990" y="380" width="110" height="40" as="geometry" />
        </mxCell>
        <mxCell id="45hF1sJUaHDSDPKUPRfM-69" value="judul_buku" style="ellipse;whiteSpace=wrap;html=1;align=center;" vertex="1" parent="1">
          <mxGeometry x="990" y="440" width="110" height="40" as="geometry" />
        </mxCell>
        <mxCell id="45hF1sJUaHDSDPKUPRfM-70" value="denda" style="ellipse;whiteSpace=wrap;html=1;align=center;" vertex="1" parent="1">
          <mxGeometry x="950" y="490" width="110" height="40" as="geometry" />
        </mxCell>
        <mxCell id="45hF1sJUaHDSDPKUPRfM-71" value="" style="endArrow=none;html=1;rounded=0;entryX=0.32;entryY=0.958;entryDx=0;entryDy=0;entryPerimeter=0;" edge="1" parent="1" target="45hF1sJUaHDSDPKUPRfM-67">
          <mxGeometry relative="1" as="geometry">
            <mxPoint x="967.5" y="429.71" as="sourcePoint" />
            <mxPoint x="975" y="360" as="targetPoint" />
          </mxGeometry>
        </mxCell>
        <mxCell id="45hF1sJUaHDSDPKUPRfM-72" value="" style="endArrow=none;html=1;rounded=0;entryX=0.028;entryY=0.678;entryDx=0;entryDy=0;entryPerimeter=0;" edge="1" parent="1" target="45hF1sJUaHDSDPKUPRfM-68">
          <mxGeometry relative="1" as="geometry">
            <mxPoint x="967.5" y="429.71" as="sourcePoint" />
            <mxPoint x="990" y="410" as="targetPoint" />
          </mxGeometry>
        </mxCell>
        <mxCell id="45hF1sJUaHDSDPKUPRfM-80" value="" style="endArrow=none;html=1;rounded=0;" edge="1" parent="1" target="45hF1sJUaHDSDPKUPRfM-69">
          <mxGeometry relative="1" as="geometry">
            <mxPoint x="967.5" y="430" as="sourcePoint" />
            <mxPoint x="1037.5" y="430" as="targetPoint" />
          </mxGeometry>
        </mxCell>
        <mxCell id="45hF1sJUaHDSDPKUPRfM-82" value="" style="endArrow=none;html=1;rounded=0;entryX=0.308;entryY=0.035;entryDx=0;entryDy=0;entryPerimeter=0;" edge="1" parent="1" target="45hF1sJUaHDSDPKUPRfM-70">
          <mxGeometry relative="1" as="geometry">
            <mxPoint x="967.5" y="430" as="sourcePoint" />
            <mxPoint x="1047.5" y="430" as="targetPoint" />
          </mxGeometry>
        </mxCell>
        <mxCell id="45hF1sJUaHDSDPKUPRfM-84" value="Buku" style="whiteSpace=wrap;html=1;align=center;" vertex="1" parent="1">
          <mxGeometry x="840" y="560" width="135" height="80" as="geometry" />
        </mxCell>
        <mxCell id="45hF1sJUaHDSDPKUPRfM-86" value="judul_buku" style="ellipse;whiteSpace=wrap;html=1;align=center;" vertex="1" parent="1">
          <mxGeometry x="730" y="640" width="110" height="40" as="geometry" />
        </mxCell>
        <mxCell id="45hF1sJUaHDSDPKUPRfM-88" value="nomor_buku" style="ellipse;whiteSpace=wrap;html=1;align=center;fontStyle=4;" vertex="1" parent="1">
          <mxGeometry x="740" y="700" width="100" height="40" as="geometry" />
        </mxCell>
        <mxCell id="45hF1sJUaHDSDPKUPRfM-89" value="tahun_terbit" style="ellipse;whiteSpace=wrap;html=1;align=center;" vertex="1" parent="1">
          <mxGeometry x="810" y="760" width="110" height="40" as="geometry" />
        </mxCell>
        <mxCell id="45hF1sJUaHDSDPKUPRfM-90" value="penerbit" style="ellipse;whiteSpace=wrap;html=1;align=center;" vertex="1" parent="1">
          <mxGeometry x="967.5" y="760" width="110" height="40" as="geometry" />
        </mxCell>
        <mxCell id="45hF1sJUaHDSDPKUPRfM-91" value="jenis_buku" style="ellipse;whiteSpace=wrap;html=1;align=center;" vertex="1" parent="1">
          <mxGeometry x="975" y="700" width="110" height="40" as="geometry" />
        </mxCell>
        <mxCell id="45hF1sJUaHDSDPKUPRfM-92" value="pengarang" style="ellipse;whiteSpace=wrap;html=1;align=center;" vertex="1" parent="1">
          <mxGeometry x="985" y="640" width="110" height="40" as="geometry" />
        </mxCell>
        <mxCell id="45hF1sJUaHDSDPKUPRfM-93" value="" style="endArrow=none;html=1;rounded=0;exitX=0.5;exitY=0;exitDx=0;exitDy=0;" edge="1" parent="1" source="45hF1sJUaHDSDPKUPRfM-89">
          <mxGeometry relative="1" as="geometry">
            <mxPoint x="750" y="640" as="sourcePoint" />
            <mxPoint x="910" y="640" as="targetPoint" />
          </mxGeometry>
        </mxCell>
        <mxCell id="45hF1sJUaHDSDPKUPRfM-95" value="" style="endArrow=none;html=1;rounded=0;exitX=0.963;exitY=0.302;exitDx=0;exitDy=0;exitPerimeter=0;" edge="1" parent="1" source="45hF1sJUaHDSDPKUPRfM-88">
          <mxGeometry relative="1" as="geometry">
            <mxPoint x="750" y="640" as="sourcePoint" />
            <mxPoint x="910" y="640" as="targetPoint" />
          </mxGeometry>
        </mxCell>
        <mxCell id="45hF1sJUaHDSDPKUPRfM-96" value="" style="endArrow=none;html=1;rounded=0;exitX=1;exitY=0.5;exitDx=0;exitDy=0;entryX=0.5;entryY=1;entryDx=0;entryDy=0;" edge="1" parent="1" source="45hF1sJUaHDSDPKUPRfM-86" target="45hF1sJUaHDSDPKUPRfM-84">
          <mxGeometry relative="1" as="geometry">
            <mxPoint x="830" y="650" as="sourcePoint" />
            <mxPoint x="900" y="650" as="targetPoint" />
          </mxGeometry>
        </mxCell>
        <mxCell id="45hF1sJUaHDSDPKUPRfM-98" value="" style="endArrow=none;html=1;rounded=0;" edge="1" parent="1">
          <mxGeometry relative="1" as="geometry">
            <mxPoint x="910" y="640" as="sourcePoint" />
            <mxPoint x="985" y="659.83" as="targetPoint" />
          </mxGeometry>
        </mxCell>
        <mxCell id="45hF1sJUaHDSDPKUPRfM-99" value="" style="endArrow=none;html=1;rounded=0;" edge="1" parent="1">
          <mxGeometry relative="1" as="geometry">
            <mxPoint x="910" y="640" as="sourcePoint" />
            <mxPoint x="975" y="719.71" as="targetPoint" />
          </mxGeometry>
        </mxCell>
        <mxCell id="45hF1sJUaHDSDPKUPRfM-100" value="" style="endArrow=none;html=1;rounded=0;" edge="1" parent="1">
          <mxGeometry relative="1" as="geometry">
            <mxPoint x="910" y="640" as="sourcePoint" />
            <mxPoint x="967.5" y="779.71" as="targetPoint" />
          </mxGeometry>
        </mxCell>
        <mxCell id="45hF1sJUaHDSDPKUPRfM-101" value="Many" style="text;html=1;align=center;verticalAlign=middle;resizable=0;points=[];autosize=1;strokeColor=none;fillColor=none;" vertex="1" parent="1">
          <mxGeometry x="365" y="248" width="50" height="30" as="geometry" />
        </mxCell>
        <mxCell id="45hF1sJUaHDSDPKUPRfM-102" value="Many" style="text;html=1;align=center;verticalAlign=middle;resizable=0;points=[];autosize=1;strokeColor=none;fillColor=none;" vertex="1" parent="1">
          <mxGeometry x="700" y="240" width="50" height="30" as="geometry" />
        </mxCell>
      </root>
    </mxGraphModel>
  </diagram>
</mxfile>
